<svg id="Layer_1" enable-background="new 0 0 512 512" viewBox="0 0 512 512" xmlns="http://www.w3.org/2000/svg"><circle cx="256" cy="256" fill="#ef5350" r="256"/><g fill="#fffffe"><path d="m231.8 324.5c0 4.6 10.3 9.8 24.2 9.8s24.2-5.2 24.2-9.8c0-4.2-8.7-8.9-20.8-9.7v9.6c0 1.9-1.5 3.3-3.3 3.3s-3.3-1.5-3.3-3.3v-9.7c-12.2.8-21 5.5-21 9.8z"/><path d="m189 315.5c-5 0-9.1 4.1-9.1 9.1s4 9.1 9.1 9.1 9.1-4 9.1-9.1-4.1-9.1-9.1-9.1z"/><path d="m356.4 295.9c-26-8.1-60.3-12.7-97.1-13v25.2c15.9.8 27.4 7.6 27.4 16.4 0 9.4-13.2 16.5-30.8 16.5-17.5 0-30.8-7.1-30.8-16.5 0-8.8 11.6-15.6 27.4-16.4v-25.1c-36.7.3-71.1 4.8-97.1 13-25.2 7.9-39.7 18.3-39.7 28.6s14.5 20.7 39.7 28.6c26.8 8.4 62.5 13 100.4 13s73.6-4.6 100.4-13c25.2-7.9 39.7-18.3 39.7-28.6.2-10.4-14.3-20.7-39.5-28.7zm-167.4 44.3c-8.7 0-15.7-7.1-15.7-15.7 0-8.7 7.1-15.7 15.7-15.7s15.7 7.1 15.7 15.7-7 15.7-15.7 15.7z"/><path d="m252.7 238.6v37.8h3.3 3.3v-35.7l81.4-37.9c1.2-.5 2-1.7 2-3s-.8-2.5-2-3l-81.5-37.9v-9.6c0-1.8-1.5-3.3-3.3-3.3s-3.3 1.5-3.3 3.3v11.3.8z"/></g></svg>